<svg width="25" height="18" viewBox="0 0 25 18" fill="none" xmlns="http://www.w3.org/2000/svg">
<path d="M12.43 0.481873H12.5635C13.7965 0.486373 20.044 0.531373 21.7285 0.984373C22.2378 1.12263 22.7018 1.39211 23.0743 1.76588C23.4467 2.13966 23.7146 2.60465 23.851 3.11437C24.0025 3.68437 24.109 4.43887 24.181 5.21737L24.196 5.37337L24.229 5.76337L24.241 5.91937C24.3385 7.29037 24.3505 8.57437 24.352 8.85487V8.96737C24.3505 9.25837 24.337 10.6294 24.229 12.0574L24.217 12.2149L24.2035 12.3709C24.1285 13.2289 24.0175 14.0809 23.851 14.7079C23.715 15.2178 23.4473 15.683 23.0747 16.0569C22.7022 16.4307 22.238 16.7 21.7285 16.8379C19.9885 17.3059 13.375 17.3389 12.4585 17.3404H12.2455C11.782 17.3404 9.86502 17.3314 7.85502 17.2624L7.60002 17.2534L7.46952 17.2474L7.21302 17.2369L6.95652 17.2264C5.29152 17.1529 3.70602 17.0344 2.97552 16.8364C2.46625 16.6987 2.00211 16.4295 1.6296 16.056C1.25709 15.6824 0.989286 15.2175 0.853016 14.7079C0.686516 14.0824 0.575516 13.2289 0.500516 12.3709L0.488516 12.2134L0.476516 12.0574C0.402487 11.041 0.361465 10.0224 0.353516 9.00337L0.353516 8.81887C0.356516 8.49637 0.368516 7.38187 0.449516 6.15187L0.460016 5.99737L0.464516 5.91937L0.476516 5.76337L0.509516 5.37337L0.524516 5.21737C0.596516 4.43887 0.703016 3.68287 0.854516 3.11437C0.990556 2.60444 1.25826 2.13924 1.63079 1.7654C2.00331 1.39155 2.46757 1.12221 2.97702 0.984373C3.70752 0.789373 5.29302 0.669372 6.95802 0.594372L7.21302 0.583873L7.47102 0.574873L7.60002 0.570373L7.85652 0.559873C9.28408 0.513935 10.7122 0.488432 12.1405 0.483373H12.43V0.481873ZM9.95352 5.29687V12.5239L16.189 8.91187L9.95352 5.29687Z" fill="black"/>
</svg>
