<?xml version="1.0" encoding="UTF-8"?>
<svg xmlns="http://www.w3.org/2000/svg" version="1.1" xmlns:xodm="http://www.corel.com/coreldraw/odm/2003" viewBox="0 0 30 30">
  <defs>
    <style>
      .cls-1 {
        fill: none;
      }
    </style>
  </defs>
  <!-- Generator: Adobe Illustrator 28.7.2, SVG Export Plug-In . SVG Version: 1.2.0 Build 154)  -->
  <g>
    <g id="Layer_1">
      <g id="Camada_x5F_1">
        <g id="_1753632771264">
          <rect class="cls-1" width="30" height="30"/>
          <path d="M12.9,7.1h-.4c-.7.2-.7.9-.7,1.4v11.4c0,.2-.2.4-.2.5l-.4.4h-.4c-.2,0-.4-.2-.5-.2-.5-.5-1.2-1.3-1.8-2-.2-.2-.4-.4-.7-.4s-.7,0-.9.2c-.4.2-.5.4-.5.7-.2.7.4,1.1.7,1.6l.7.7c.5.4.9.7,1.3,1.1.7.5,3.6,3.9,4.1,4.5.5.4.9.7,1.4.9s1.2.4,2,.4h3.7c.9,0,1.4,0,2.1-.5.4-.2.5-.4.7-.7s.4-.7.4-1.1c.2-.4.2-5,.2-7.3v-1.1c0-.5,0-.7-.4-.9q0-.2-.2-.2c0-.2-.2-.2-.4-.2s-.5,0-.5.2c-.2,0-.2.2-.2.2-.2.4-.2.7-.2,1.1,0,.5,0,1.1-.4,1.2-.2.2-.4.2-.5.2h-.4c0-.2-.2-.2-.2-.4-.2-.2-.2-.4-.2-.5v-1.2c0-.9,0-2-.2-2.1v-.2c-.2-.2-.2-.4-.4-.4-.2-.2-.4-.2-.5,0h-.4c-.4.4-.4.9-.4,1.8v1.4c0,.2-.2.4-.4.5,0,0-.2.2-.4.2h-.5c0-.2-.2-.2-.4-.4-.2-.4-.2-1.2,0-2.3,0-1.2,0-2.5-.2-2.9v-.2c-.2-.2-.4-.2-.5-.4h-.5l-.2.2c-.4.4-.4,1.1-.4,1.8v1.6c0,.5,0,.9-.5,1.1-.5.4-.9,0-1.1-.4s-.2-.9-.2-1.2l.2-7c0-.4-.2-.5-.2-.7,0,0,0-.2-.2-.4,0,0-.2,0-.4-.2ZM10,17.9v.2-9.3c0-.4,0-.7.2-1.1,0-.5.2-1.1.7-1.4.2-.4.5-.5.9-.7.4,0,.7-.2,1.1,0,.5,0,1.1.2,1.6.7.7.7.7,1.4.7,2.5v2.1q.2-.2.4-.2h.9c.4,0,.7.2.9.4.9.5,1.1,1.1,1.2,1.8.2,0,.5-.2.7-.2.5,0,1.1.2,1.4.4.5.4.9.9,1.1,1.4,0,.2.2.4.2.4.5-.2,1.4-.4,2.3.4,1.1.9,1.1,1.6,1.1,3v7.3c0,.7-.2,1.3-.4,1.8s-.4.9-.7,1.3c-.4.4-.7.7-1.1.9-.5.4-1.1.5-1.8.5h-4.1c-1.1,0-2,0-2.9-.4-1.8-.5-2.5-1.4-3.4-2.3-.2-.4-.5-.7-.7-1.1-.9-.9-1.8-1.8-2.7-2.5l-2-2c-.4-.4-.5-.5-.7-1.1-.4-.7-.4-1.3-.2-1.8.2-.7.5-1.2.9-1.6.5-.4,1.1-.5,1.8-.7.5,0,1.1.2,1.6.5.4.2.5.5.9.7ZM15.9,4.1c.5-.5,1.6-1.6,1.8-1.8h.5q.2,0,.4.2c.2,0,.2.2.2.2.2.2.2.4.2.5,0,.4-.4.5-.4.7l-2.3,2.1h0c-.2.2-.4.2-.5.2s-.4,0-.4-.2c-.2,0-.2-.2-.4-.4v-.4c0-.4.2-.5.4-.7l.5-.5ZM16.3,7.5h0c.2-.2,1.4,0,2.1.2l1.3.2c.4,0,.5.2.7.4.2,0,.2.2.2.4s0,.4-.2.5c0,.2-.4.4-.4.4-.4.2-1.6-.2-2.1-.2s-.9-.2-1.2-.2-.7-.2-.9-.5v-.2c-.2-.2,0-.4,0-.5.2-.2.2-.4.4-.4,0,0,.2,0,.2,0ZM11.8,1.3c0-.4,0-.7.4-1.1C12.7-.2,13,0,13.2.4c.2.4.2.7.2.9v2.3c0,.4,0,1.1-.4,1.2-.5.4-.9.2-1.1-.4-.2-.2-.2-.5-.2-.7-.2-.7,0-1.6,0-2.5ZM6.3,3.4c-.2-.4,0-.7.5-1.1.5-.2.7.2,1.1.4.5.5,1.3,1.3,1.8,1.8.2.2.4.4.5.5.2.5.2.9-.4,1.1-.7.4-1.1,0-1.4-.4-.5-.5-1.1-1.2-1.6-1.8-.2,0-.4-.2-.5-.5ZM5.4,7.9l3-.4c.4-.2.7,0,.9.2.2,0,.2.2.2.4v.4c0,.4-.2.5-.5.5-.4.2-2.5.5-3.2.5s-.5,0-.7-.2-.4-.2-.4-.4v-.4c.2-.4.4-.5.5-.7,0,0,.2,0,.2,0Z"/>
        </g>
      </g>
    </g>
  </g>
</svg>