<svg width="72" height="64" viewBox="0 0 72 64" fill="none" xmlns="http://www.w3.org/2000/svg">
<g clip-path="url(#clip0_49_30)">
<path opacity="0.4" d="M52 62.875V25.05C52.4375 24.1875 52.8375 23.325 53.2 22.475C53.2625 22.325 53.325 22.1625 53.3875 22.0125L67.8875 16.2125C69.8625 15.425 72 16.875 72 19V52.85C72 54.075 71.25 55.175 70.1125 55.6375L52 62.875ZM1.8875 23.4125L17.2125 17.2875C17.5125 19.05 18.1125 20.825 18.8125 22.475C19.175 23.325 19.575 24.1875 20.0125 25.05V56.475L4.1125 62.8375C2.1375 63.625 0 62.175 0 60.05V26.2C0 24.975 0.75 23.875 1.8875 23.4125ZM48 31.875V63.0375L24 56.175V31.875C26.5625 35.7875 29.2875 39.325 31.025 41.5C33.5875 44.7 38.4125 44.7 40.975 41.5C42.7125 39.325 45.4375 35.7875 48 31.875Z" fill="white"/>
<path d="M37.85 39C41.8625 33.9875 51 21.825 51 15C51 6.7125 44.2875 0 36 0C27.7125 0 21 6.7125 21 15C21 21.825 30.1375 33.9875 34.15 39C35.1125 40.2 36.9 40.2 37.85 39ZM36 9C37.3261 9 38.5979 9.52678 39.5355 10.4645C40.4732 11.4021 41 12.6739 41 14C41 15.3261 40.4732 16.5979 39.5355 17.5355C38.5979 18.4732 37.3261 19 36 19C34.6739 19 33.4021 18.4732 32.4645 17.5355C31.5268 16.5979 31 15.3261 31 14C31 12.6739 31.5268 11.4021 32.4645 10.4645C33.4021 9.52678 34.6739 9 36 9Z" fill="#D53E36"/>
</g>
<defs>
<clipPath id="clip0_49_30">
<rect width="72" height="64" fill="white"/>
</clipPath>
</defs>
</svg>