<svg width="64" height="64" viewBox="0 0 64 64" fill="none" xmlns="http://www.w3.org/2000/svg">
<circle cx="32" cy="32" r="32" fill="#D83833"/>
<g clip-path="url(#clip0_151_71)">
<path d="M26 18C26.7879 18 27.5681 18.1552 28.2961 18.4567C29.0241 18.7583 29.6855 19.2002 30.2426 19.7574C30.7998 20.3145 31.2417 20.9759 31.5433 21.7039C31.8448 22.4319 32 23.2121 32 24C32 24.7879 31.8448 25.5681 31.5433 26.2961C31.2417 27.0241 30.7998 27.6855 30.2426 28.2426C29.6855 28.7998 29.0241 29.2417 28.2961 29.5433C27.5681 29.8448 26.7879 30 26 30C25.2121 30 24.4319 29.8448 23.7039 29.5433C22.9759 29.2417 22.3145 28.7998 21.7574 28.2426C21.2002 27.6855 20.7583 27.0241 20.4567 26.2961C20.1552 25.5681 20 24.7879 20 24C20 23.2121 20.1552 22.4319 20.4567 21.7039C20.7583 20.9759 21.2002 20.3145 21.7574 19.7574C22.3145 19.2002 22.9759 18.7583 23.7039 18.4567C24.4319 18.1552 25.2121 18 26 18ZM26 32C28.1217 32 30.1566 31.1571 31.6569 29.6569C33.1571 28.1566 34 26.1217 34 24C34 21.8783 33.1571 19.8434 31.6569 18.3431C30.1566 16.8429 28.1217 16 26 16C23.8783 16 21.8434 16.8429 20.3431 18.3431C18.8429 19.8434 18 21.8783 18 24C18 26.1217 18.8429 28.1566 20.3431 29.6569C21.8434 31.1571 23.8783 32 26 32ZM23.1438 37H28.8563C33.8563 37 37.9188 41.0188 38 46H14C14.075 41.0188 18.1375 37 23.1438 37ZM23.1438 35C16.9875 35 12 39.9875 12 46.1437C12 47.1687 12.8313 48 13.8563 48H38.1437C39.1687 48 40 47.1687 40 46.1437C40 39.9875 35.0125 35 28.8563 35H23.1438ZM51.7062 27.7063C52.0937 27.3188 52.0937 26.6812 51.7062 26.2937C51.3187 25.9062 50.6813 25.9062 50.2938 26.2937L43 33.5875L39.7062 30.2937C39.3187 29.9062 38.6813 29.9062 38.2938 30.2937C37.9063 30.6812 37.9063 31.3188 38.2938 31.7063L42.2938 35.7062C42.6813 36.0937 43.3187 36.0937 43.7062 35.7062L51.7062 27.7063Z" fill="white"/>
</g>
<defs>
<clipPath id="clip0_151_71">
<rect width="40" height="32" fill="white" transform="translate(12 16)"/>
</clipPath>
</defs>
</svg>
