<svg width="64" height="64" viewBox="0 0 64 64" fill="none" xmlns="http://www.w3.org/2000/svg">
<circle cx="32" cy="32" r="32" fill="#D83833"/>
<path d="M28.9444 23.1828L28.1111 22.2336L27.8194 21.9031C26.0139 19.85 23.2847 18.8938 20.6111 19.3859C16.9097 20.068 14.2222 23.3305 14.2222 27.1414V27.3875C14.2222 29.6586 15.1528 31.8242 16.7986 33.3711L29.5694 45.4156C29.625 45.4648 29.7014 45.5 29.7778 45.5C29.8542 45.5 29.9306 45.4719 29.9861 45.4156L30.7431 44.6984C31.0417 45.4156 31.4097 46.1047 31.8333 46.7445L31.4931 47.0609C31.4375 47.1172 31.375 47.1664 31.3125 47.2156C30.875 47.5602 30.3333 47.743 29.7778 47.743C29.1389 47.743 28.5278 47.4969 28.0556 47.0609L15.2778 35.0234C15.0139 34.7773 14.7708 34.5172 14.5347 34.25C12.9097 32.3516 12 29.9188 12 27.3875V27.1414C12 22.2477 15.4583 18.05 20.2153 17.1711C23.0556 16.6508 25.9514 17.3961 28.1806 19.168C28.6458 19.5406 29.0833 19.9484 29.4792 20.4055L29.7708 20.7359L30.0625 20.4055C30.3542 20.075 30.6597 19.7656 30.9861 19.4844C31.1111 19.3789 31.2361 19.2734 31.3611 19.168C33.5972 17.4031 36.4931 16.6508 39.3403 17.1711C44.0972 18.05 47.5556 22.2477 47.5556 27.1414V27.3875C47.5556 27.8656 47.5208 28.3367 47.4583 28.8008C46.7778 28.4563 46.0556 28.175 45.3125 27.957C45.3264 27.7672 45.3333 27.5773 45.3333 27.3875V27.1414C45.3333 23.3305 42.6458 20.068 38.9444 19.3859C36.2708 18.8938 33.5417 19.85 31.7361 21.9031L31.4444 22.2336L30.6111 23.1828C30.4028 23.4219 30.0972 23.5625 29.7778 23.5625C29.4583 23.5625 29.1597 23.4219 28.9444 23.1828ZM42 47.75C44.0628 47.75 46.0411 46.9203 47.4997 45.4435C48.9583 43.9666 49.7778 41.9636 49.7778 39.875C49.7778 37.7864 48.9583 35.7834 47.4997 34.3065C46.0411 32.8297 44.0628 32 42 32C39.9372 32 37.9589 32.8297 36.5003 34.3065C35.0417 35.7834 34.2222 37.7864 34.2222 39.875C34.2222 41.9636 35.0417 43.9666 36.5003 45.4435C37.9589 46.9203 39.9372 47.75 42 47.75ZM42 29.75C44.6522 29.75 47.1957 30.8167 49.0711 32.7155C50.9464 34.6144 52 37.1897 52 39.875C52 42.5603 50.9464 45.1357 49.0711 47.0345C47.1957 48.9333 44.6522 50 42 50C39.3478 50 36.8043 48.9333 34.9289 47.0345C33.0536 45.1357 32 42.5603 32 39.875C32 37.1897 33.0536 34.6144 34.9289 32.7155C36.8043 30.8167 39.3478 29.75 42 29.75ZM46.6736 36.8305C47.1042 37.2664 47.1042 37.9836 46.6736 38.4195L41.6736 43.482C41.2431 43.918 40.5347 43.918 40.1042 43.482L37.3264 40.6695C36.8958 40.2336 36.8958 39.5164 37.3264 39.0805C37.7569 38.6445 38.4653 38.6445 38.8958 39.0805L40.8889 41.0984L45.1042 36.8305C45.5347 36.3945 46.2431 36.3945 46.6736 36.8305Z" fill="white"/>
</svg>
