<?xml version="1.0" encoding="UTF-8"?>
<svg xmlns="http://www.w3.org/2000/svg" version="1.1" viewBox="0 0 32 32">
  <!-- Generator: Adobe Illustrator 28.7.2, SVG Export Plug-In . SVG Version: 1.2.0 Build 154)  -->
  <g>
    <g id="Layer_1">
      <path d="M19.9,12.8c-.6.8-1.2,1.5-1.8,2.3.5.4,1,.8,1.5,1.2.3.2.6.5.9.7.3.2.4.6.1.9-1.1,1.5-2.2,3-3.6,4.3-2,1.8-4.3,2.8-7,3-.6,0-1.1,0-1.7,0-.3,0-.6,0-.7-.4-.1-.3,0-.6.2-.8,4.9-6.5,9.9-12.9,14.8-19.4,1-1.3,2.6-1.7,3.9-1.1,1.9.9,2.5,3.2,1.3,4.9-1.5,2.1-3.1,4.1-4.7,6.1-.3.4-.6.4-1,0-.8-.6-1.6-1.2-2.4-1.9h0Z"/>
      <path d="M7,20.9c-.4.5-.8,1-1.2,1.5-.9,1.1-1,2.3-.5,3.6.4,1.1,1.3,1.7,2.4,1.9,1.5.3,3,.1,4.5-.2,3.6-.8,6.5-2.7,8.7-5.6.2-.3.5-.7.7-1,0,0,.2-.2.3-.2,2,0,3.9,0,5.9,0,.7,0,1.3.6,1.3,1.3,0,2,0,3.9,0,5.9,0,.7-.6,1.3-1.3,1.3,0,0-.2,0-.3,0-7.8,0-15.6,0-23.5,0-.2,0-.4,0-.6,0-.6-.1-1-.6-1-1.2,0-2,0-4,0-5.9,0-.7.5-1.2,1.2-1.2,1,0,2,0,3.1,0,0,0,0,0,0,0h0Z"/>
    </g>
  </g>
</svg>