<svg width="158" height="120" viewBox="0 0 158 120" fill="none" xmlns="http://www.w3.org/2000/svg">
<path d="M42.6 111V96H6V85.08L35.16 30.84L48.6 37.56L24.84 81.72H42.6V64.8H58.08V81.72H67.32V96H58.08V111H42.6Z" fill="#61C1D0"/>
<path opacity="0.4" d="M83 36C80.2344 36 78 38.2344 78 41C78 43.7656 80.2344 46 83 46V91C83 99.2812 89.7188 106 98 106C103.094 106 107.609 103.453 110.312 99.5625C108.828 96.1719 108 92.4375 108 88.5C108 82.6094 109.844 77.1562 113 72.6875V46C115.766 46 118 43.7656 118 41C118 38.2344 115.766 36 113 36H103H93H83ZM103 46V61H93V46H103Z" fill="#D53E36"/>
<path d="M135.5 111C141.467 111 147.19 108.629 151.41 104.41C155.629 100.19 158 94.4674 158 88.5C158 82.5326 155.629 76.8097 151.41 72.5901C147.19 68.3705 141.467 66 135.5 66C129.533 66 123.81 68.3705 119.59 72.5901C115.371 76.8097 113 82.5326 113 88.5C113 94.4674 115.371 100.19 119.59 104.41C123.81 108.629 129.533 111 135.5 111ZM146.016 85.2656L134.766 96.5156C133.797 97.4844 132.203 97.4844 131.234 96.5156L124.984 90.2656C124.016 89.2969 124.016 87.7031 124.984 86.7344C125.953 85.7656 127.547 85.7656 128.516 86.7344L133 91.2188L142.484 81.7344C143.453 80.7656 145.047 80.7656 146.016 81.7344C146.984 82.7031 146.984 84.2969 146.016 85.2656Z" fill="#D53E36"/>
</svg>
