<?xml version="1.0" encoding="UTF-8"?>
<svg xmlns="http://www.w3.org/2000/svg" version="1.1" viewBox="0 0 32 32">
  <!-- Generator: Adobe Illustrator 28.7.2, SVG Export Plug-In . SVG Version: 1.2.0 Build 154)  -->
  <g>
    <g id="Layer_1">
      <path d="M25.4,2.7c-2-1.2-4.3-.3-6.4.4-1.2.5-2.4.9-3.4.9s-2.1-.5-3.4-.9c-2.1-.8-4.5-1.8-6.4-.4-4.3,3.2-3.1,14-.9,20.6.8,2.5,2.6,6.7,5,6.7s2.6-2.6,3-5c.4-3.1.8-5.1,2.8-5.1s2.4,2,2.8,5.1c.3,2.5.7,5,3,5s5-5.2,6.3-9.7c1.8-6.4,2.2-14.9-2.3-17.6Z"/>
    </g>
  </g>
</svg>