<svg width="19" height="19" viewBox="0 0 19 19" fill="none" xmlns="http://www.w3.org/2000/svg">
<path d="M2.33644 4.68069C3.54484 4.68069 4.52444 3.70109 4.52444 2.49269C4.52444 1.28429 3.54484 0.304688 2.33644 0.304688C1.12804 0.304688 0.148438 1.28429 0.148438 2.49269C0.148438 3.70109 1.12804 4.68069 2.33644 4.68069Z" fill="black"/>
<path d="M6.59041 6.33851V18.4775H10.3594V12.4745C10.3594 10.8905 10.6574 9.35652 12.6214 9.35652C14.5584 9.35652 14.5824 11.1675 14.5824 12.5745V18.4785H18.3534V11.8215C18.3534 8.55152 17.6494 6.03851 13.8274 6.03851C11.9924 6.03851 10.7624 7.04551 10.2594 7.99852H10.2084V6.33851H6.59041ZM0.448406 6.33851H4.22341V18.4775H0.448406V6.33851Z" fill="black"/>
</svg>
