<?xml version="1.0" encoding="UTF-8"?>
<svg xmlns="http://www.w3.org/2000/svg" version="1.1" viewBox="0 0 32 32">
  <!-- Generator: Adobe Illustrator 28.7.2, SVG Export Plug-In . SVG Version: 1.2.0 Build 154)  -->
  <g>
    <g id="Layer_1">
      <path d="M31.7,8.8c-.5-2.1-1.7-3.9-3.3-5.2-1.6-1.3-3.5-2-5.4-2s-2.9.4-4.2,1.2c-1,.6-2,1.5-2.8,2.5-1.8-2.4-4.3-3.7-6.9-3.7s-3.9.7-5.4,2c-1.6,1.3-2.8,3.1-3.3,5.2-.4,1.5-.6,3.7.2,6.3h4.8l1.7-3.5c.2-.3.5-.5.8-.5s.7.2.8.5l3.2,6.4,3.2-6.4c.2-.3.5-.5.8-.5s.7.2.8.5l1.7,3.5h6.5c.5,0,.9.4.9.9s-.4.9-.9.9h-7.1c-.4,0-.7-.2-.8-.5l-1.2-2.3-3.2,6.4c-.2.3-.5.5-.8.5s-.7-.2-.8-.5l-3.2-6.4-1.2,2.3c-.2.3-.5.5-.8.5H1.2c.3.7.7,1.4,1.2,2.2,2.6,4.1,7,7.8,13.1,11.2.1,0,.3.1.4.1s.3,0,.4-.1c6.2-3.4,10.6-7.1,13.2-11.2,2.8-4.4,2.6-8,2.1-10.3Z"/>
    </g>
  </g>
</svg>