<?xml version="1.0" encoding="UTF-8"?><svg id="a" xmlns="http://www.w3.org/2000/svg" viewBox="0 0 534.04 164.38"><path d="M164.38,82.19C164.38,36.8,127.58,0,82.19,0S0,36.8,0,82.19s36.8,82.19,82.19,82.19,82.19-36.8,82.19-82.19" style="fill:#d31245;"/><path d="M55.92,93.12c4.71-4.73,4.45-12.64-.59-17.7-5.07-5.05-12.97-5.31-17.71-.6-4.71,4.73-4.45,12.63.6,17.71,5.06,5.04,12.97,5.31,17.7.59" style="fill:#fff;"/><path d="M38.31,37.38c-5.05,5.06-5.43,12.85-.87,17.43,4.59,4.57,12.37,4.18,17.43-.86,5.04-5.06,5.43-12.84.86-17.43-4.58-4.56-12.37-4.18-17.43.87" style="fill:#fff;"/><path d="M110.26,53.91c4.21,5.16,12.1,5.7,17.65,1.2,5.54-4.52,6.62-12.35,2.42-17.52-4.21-5.16-12.09-5.7-17.65-1.2h0c-5.53,4.52-6.62,12.35-2.43,17.53" style="fill:#fff;"/><path d="M93.33,76.97c-8.07-7.02-19.17-1.88-20.04,8.57-1.73,12.44-2.68,11.61-3.74,14.31-1.96,3.24-5.29,7.12-10.89,10.65-2.51,1.04-6.69,2.69-14.42,4.1-8.42,1.56-13.98,12.49-6.43,20.06,7.57,7.54,18.86,3.02,20.34-7.45,2.55-12.91,3.41-11.45,4.69-14.52,1.89-2.4,6.26-7.55,11.29-10.76,2.5-1.18,6.58-2.97,13.9-4.74,8.38-2.03,13.34-13.18,5.29-20.23" style="fill:#fff;"/><path d="M121.09,72.36c-12.44-1.73-11.61-2.68-14.32-3.73-3.24-1.96-7.11-5.29-10.65-10.89-1.04-2.51-2.69-6.69-4.1-14.42-1.55-8.42-12.48-13.98-20.05-6.43-7.54,7.57-3.02,18.85,7.45,20.34,12.91,2.55,11.45,3.41,14.52,4.69,2.4,1.89,7.55,6.26,10.76,11.29,1.18,2.5,2.97,6.58,4.74,13.9,2.03,8.39,13.18,13.34,20.23,5.29,7.02-8.07,1.88-19.17-8.57-20.04" style="fill:#fff;"/><path d="M215.09,107.03h-10.07v-17.15h10.07c9.53,0,12.17,3.25,12.17,8.57s-2.65,8.58-12.17,8.58M216.55,80.57h-24.16v60.08h12.63v-21.66c0-2.64,2.45-2.64,2.45-2.64h9.09c14.28,0,23.34-5.41,23.34-17.9s-9.06-17.89-23.34-17.89" style="fill:#d31245;"/><path d="M322.74,106.86h-9.33v-16.98h11.53c6.96,0,10.7,2.83,10.7,8.5s-3.02,8.49-12.9,8.49M337.34,115.76c-.9-1.54-.33-2.07.42-2.44,6.99-2.43,10.61-8.05,10.52-14.94-.09-9.91-6.14-17.81-21.15-17.81h-26.35v60.09h12.63v-24.46h9.47v.02s1.51-.15,2.12,1.35l11.75,23.1h14s-12-22.41-13.41-24.89M521.41,140.65h12.63v-60.09h-12.63v60.09ZM492.94,121.51h-.18l-26-40.95h-13.18v60.09h11.9v-42.77h.19l27,42.77h12.17v-60.09h-11.9v40.95ZM424.3,140.65h12.64v-60.09h-12.64v60.09ZM382.28,131h-8.42v-40.78h8.42c14.46,0,17.86,9.65,17.86,20.39s-3.39,20.39-17.86,20.39M383.11,80.56h-21.87v60.09h21.87c17.49,0,29.56-8.83,29.66-30.04-.09-21.22-12.17-30.04-29.66-30.04M257.85,118.18l7.78-26.13h.18l7.41,26.13h-15.37ZM257.67,80.47l-19.04,60.17h12.54l3.93-12.98h20.87l3.66,12.98h12.54l-18.77-60.17h-15.74Z" style="fill:#d31245;"/><polygon points="200.59 22.68 192.06 22.68 192.06 62.51 215.46 62.51 215.46 54.32 200.59 54.32 200.59 22.68" style="fill:#8b9b92;"/><path d="M239.24,36.89c-2.17-2.08-5.07-3.13-8.66-3.13-3.81,0-7.14,1.41-9.88,4.21-2.7,2.79-4.07,6.22-4.07,10.2s1.37,7.46,4.08,10.25c2.74,2.75,6.06,4.15,9.88,4.15,3.58,0,6.49-1.04,8.66-3.08v3.02h8.03v-28.69h-8.03v3.07ZM237.15,53.01c-1.36,1.24-3.12,1.86-5.23,1.86s-3.87-.63-5.22-1.86c-1.37-1.28-2.04-2.86-2.04-4.85s.66-3.55,2.04-4.8c1.36-1.27,3.12-1.91,5.22-1.91s3.87.64,5.23,1.91c1.41,1.24,2.09,2.81,2.09,4.79s-.68,3.57-2.09,4.84Z" style="fill:#8b9b92;"/><path d="M279.45,37.97c-2.71-2.79-6.03-4.21-9.88-4.21-3.58,0-6.46,1.13-8.6,3.36v-14.44h-8.03v39.83h8.03v-3.01c2.13,2.04,5.02,3.07,8.6,3.07,3.89,0,7.21-1.4,9.88-4.15,2.74-2.75,4.13-6.2,4.13-10.25s-1.39-7.41-4.13-10.2ZM268.23,41.46c2.14,0,3.85.62,5.24,1.91,1.4,1.24,2.09,2.81,2.09,4.79s-.68,3.57-2.09,4.84c-1.36,1.24-3.12,1.86-5.23,1.86s-3.87-.63-5.22-1.86c-1.37-1.28-2.04-2.86-2.04-4.85s.66-3.55,2.04-4.8c1.36-1.27,3.12-1.91,5.22-1.91Z" style="fill:#8b9b92;"/><path d="M311.83,25.88l-8.03,2.43v5.52h-4.85v7.75h4.85v11.16c0,1.94.25,3.6.75,4.96.51,1.39,1.34,2.51,2.46,3.32,1.11.8,2.58,1.33,4.37,1.58.79.11,1.66.16,2.6.16,1.15,0,2.41-.08,3.77-.25l.37-.04v-7.34l-.44.02c-1.96.11-3.53.18-4.55-.17-.45-.16-.77-.39-.98-.72-.22-.34-.33-.84-.33-1.5v-11.18h6.3v-7.75h-6.3v-7.94Z" style="fill:#8b9b92;"/><path d="M336.31,33.77c-4.22,0-7.84,1.41-10.76,4.2-2.9,2.75-4.36,6.19-4.36,10.21s1.47,7.51,4.36,10.26c2.89,2.75,6.51,4.14,10.76,4.14s7.87-1.39,10.76-4.14c2.93-2.79,4.42-6.24,4.42-10.26s-1.49-7.42-4.42-10.21c-2.93-2.78-6.55-4.2-10.76-4.2ZM341.43,52.85h0c-1.36,1.23-3.08,1.86-5.12,1.86s-3.76-.62-5.11-1.85c-1.34-1.27-1.98-2.81-1.98-4.69s.65-3.42,1.98-4.68c1.36-1.23,3.08-1.86,5.12-1.86s3.76.63,5.12,1.86c1.37,1.24,2.03,2.77,2.03,4.68s-.66,3.44-2.03,4.68Z" style="fill:#8b9b92;"/><polygon points="380.27 22.68 371.74 22.68 371.74 62.51 395.14 62.51 395.14 54.32 380.27 54.32 380.27 22.68" style="fill:#8b9b92;"/><path d="M418.92,36.89c-2.17-2.08-5.07-3.13-8.66-3.13-3.81,0-7.14,1.41-9.88,4.21-2.7,2.79-4.07,6.22-4.07,10.2s1.37,7.46,4.08,10.25c2.74,2.75,6.06,4.15,9.88,4.15,3.58,0,6.49-1.04,8.66-3.08v3.02h8.03v-28.69h-8.03v3.07ZM416.82,53.01c-1.36,1.24-3.12,1.86-5.23,1.86s-3.87-.63-5.22-1.86c-1.37-1.28-2.04-2.86-2.04-4.85s.66-3.55,2.04-4.8c1.36-1.27,3.12-1.91,5.22-1.91s3.87.64,5.23,1.91c1.41,1.24,2.09,2.81,2.09,4.79s-.68,3.57-2.09,4.84Z" style="fill:#8b9b92;"/><path d="M459.13,37.97c-2.71-2.79-6.03-4.21-9.88-4.21-3.58,0-6.46,1.13-8.6,3.36v-14.44h-8.03v39.83h8.03v-3.01c2.13,2.04,5.02,3.07,8.6,3.07,3.89,0,7.21-1.4,9.88-4.15,2.74-2.75,4.13-6.2,4.13-10.25s-1.39-7.41-4.13-10.2ZM447.91,41.46c2.14,0,3.85.62,5.24,1.91,1.4,1.24,2.09,2.81,2.09,4.79s-.68,3.57-2.09,4.84c-1.36,1.24-3.12,1.86-5.23,1.86s-3.87-.63-5.22-1.86c-1.37-1.28-2.04-2.86-2.04-4.85s.66-3.55,2.04-4.8c1.36-1.27,3.12-1.91,5.22-1.91Z" style="fill:#8b9b92;"/><rect x="357.09" y="45.45" width="9.06" height="6.22" style="fill:#8b9b92;"/><rect x="289.17" y="45.45" width="9.06" height="6.22" style="fill:#8b9b92;"/></svg>