<?xml version="1.0" encoding="UTF-8"?>
<svg xmlns="http://www.w3.org/2000/svg" version="1.1" viewBox="0 0 7630 1467">
  <defs>
    <style>
      .cls-1 {
        fill: #99de34;
      }

      .cls-2 {
        fill: #ccc;
      }
    </style>
  </defs>
  <!-- Generator: Adobe Illustrator 28.7.2, SVG Export Plug-In . SVG Version: 1.2.0 Build 154)  -->
  <g>
    <g id="Layer_1">
      <g id="Layer_1-2" data-name="Layer_1">
        <g>
          <g>
            <path class="cls-1" d="M987,1464.6c-27.6-1-114.6-8.6-147-12.8-177-22.8-334-71.4-480-148.4-37.2-19.8-52.8-33.2-59.6-52-4.2-11.2-4.4-14.6-4.4-93.4v-81.8l41.4,23.2c123.4,68.8,212.8,105.6,329.6,135.6,120.4,31,228.4,44.4,373,46.4,161.8,2.2,288-10.8,419.2-43.4,117.6-29,211.2-66.6,332.4-133.6l50.4-28v81.8c0,78.8-.2,82-4.4,93.2-7,19-22.4,32.4-58.6,51.2-192.4,99.8-380.2,148.6-620.4,161.4-32.2,1.8-131.6,2-171.6.6h0Z"/>
            <path class="cls-1" d="M5051.6,793.8c-124-13-199.6-64-238.6-160.8-24.4-60.6-36.2-156.6-31.2-253.6,4.6-87.4,17.4-145.2,43.4-195.4,24.4-47.2,57.8-80.4,103.8-102.8,51.8-25.4,106-35.6,190-35.6,65.8.2,112.2,6.6,155.6,21.8,100.8,35,156,113,174.2,245.8,5.8,41.8,8,104.2,5.4,152.2-5.6,108.4-25.8,177.6-67.4,232s-111.8,87.6-203.6,96.4c-25,2.6-108.6,2.4-131.6,0h0ZM5152.2,627.8c67.6-6.8,94.2-36,106.8-116.8,4.4-28,6.2-110.2,3.2-149-9.4-121.4-40.6-151-155.8-147.6-51.2,1.6-75.8,9-95.4,28.6-12.4,12.4-19.4,25-25.8,47.8-9.4,32-12,59.8-12,128.2-.2,67,1.8,90.2,10,122.6,9.2,36.8,24.4,59.2,48.6,72.2,26.2,13.8,71.2,19.2,120.4,14h0Z"/>
            <path class="cls-1" d="M6542,793.8c-59-6-112.2-23.6-151.4-50-59.6-40.4-96.2-109-110.6-207.4-11.6-80.4-9.6-185.4,5-257.8,13.4-66.4,38.4-117.8,75.2-154.4,54.2-54.2,131.4-78.6,249.8-78.6,81.6.2,136.8,10.2,187,34.4,70.2,33.6,115,96.4,135.8,190,18.6,84,19,216.2,1,300-30.2,139.6-109.8,208.4-259.8,224-22.6,2.4-108,2.2-132-.2h0ZM6662.8,625.2c60.2-11.6,84.2-50.8,91.2-148.2,5.4-74.6-.2-153.4-13.6-193.8-12-36.4-32.2-54.6-71.4-64.6-19.6-4.8-97.2-5-118.4-.2-50.8,11.8-72.6,42.4-83,117.6-4,29.8-3.4,144.6,1,174,14,94.2,48.8,121.8,149.4,119,16-.4,36.2-2.2,44.8-3.8Z"/>
            <path class="cls-1" d="M5542,427V59.8l204.6.8c216,.8,214.2.6,252.8,10.4,76.2,19.4,127,68.4,155.2,150.2,38,109.4,36.2,317.8-3.4,420.4-13.8,35.8-27.8,58.8-50.6,82.6-33,34.6-70.2,53.2-127.6,64.2-21.2,4-28.8,4.2-226.4,5l-204.6.8v-367.2h0ZM5891.6,626c31.2-2.2,46.8-7.2,60.2-19.2,12.2-11,18.4-21.2,24.8-41.8,11.4-36.6,16.6-92.6,14.6-160-3.2-119.4-22-163.4-74.4-175.2-6-1.4-44.4-2.6-100.2-3.2l-90.6-1-.4,168.8-.6,168.6-7.4,15.4c-8,17-21.8,33.2-35.4,41.8l-8.6,5.6,14.6.8c33,1.4,180.4,1.2,203.4-.6Z"/>
            <path class="cls-1" d="M7360,792.8c-87.4-4.6-155.6-14.4-217-30.8-40.8-11-85.6-27.6-109.4-40.6l-11.6-6.4v-66.6c0-61.4.2-67.2,3.8-74,10.8-21.2,31.8-26,58.2-13.2,85.4,41.2,188.2,65.2,278,65.2s38.8-.6,50-4.2c14-4.4,22.6-11.6,29.2-24.2,5-9.8,6.4-38.6,2.2-48.4-6.2-15-12.8-17.2-157.6-52.6-117.6-28.8-131-32.6-159.2-46-73.4-34.6-104.6-89.4-104.6-184s13.4-110.4,43.4-143c23.6-25.6,51.8-40.6,95.2-51,47.4-11.2,84.4-13,273.2-13h156.8l-1.4,22.6c-4,62-6.8,85.2-12,96.4-7,15.4-21.2,29.8-37,37.6l-13.2,6.4-141,1.2c-143,1.2-156.6,2-170.4,9-8.8,4.6-11.6,12.4-11.6,31.8s3,28.8,10.4,35.2c5,4.2,37.2,15.2,63.6,21.6,9.4,2.2,56.2,13.6,104,25.2,99.4,24,116.4,29,147.2,44,58.4,28.4,87.4,69.2,97,136.6,1.4,10.2,2,31.2,1.2,56-.8,33.8-1.6,42.2-6,58.6-20.8,78.6-81,131.8-166.4,146.8-17.8,3-69.6,5.2-95,3.8h0Z"/>
            <path class="cls-1" d="M4330,547.6c0-263-.2-255.4,11-277.4,6-12.2,24.2-32,33.8-37.2,4-2.2,7.2-4.6,7.2-5.4s-68-1.6-151-1.6h-151v-4.4c0-2.6,1.8-26.8,3.8-54.2,3.6-46.4,4.2-50.2,9.6-62,10.4-22,30.6-38.2,54.2-43.2,7.6-1.6,97.2-2.2,314.8-2.2h304l-1.2,12.6c-.6,6.8-2,26.8-3.2,44.4s-3,37.8-4.2,45c-4,25.2-20.2,46.6-43.8,57.8l-11,5.2-93.4.6-93.6.6v244.6c0,167.8-.6,248.2-2.2,256.2-4.4,24.2-21.4,46.4-43.4,56.6l-11.4,5.4-64.4.6-64.6.6v-242.6h0Z"/>
            <path class="cls-1" d="M328.2,780c-12.4-2.6-21.6-9.4-26.8-20-4.4-9-4.4-9.2-5.4-147l-1-138-131-1c-120.2-1-131.6-1.2-139-4.6-17.8-8-22.8-18.2-23-45.4,0-33.6,8-54.2,39.8-101.2l19.2-28.8h340.2c379.6,0,354.4-1,369,13.8,5.2,5.2,7.8,10,9.6,17.8,7.2,34.4-4,68.8-40.2,121.4l-18.4,27h-241.2v248l-20.4,13.6c-30,20-54.4,33.4-72,39.4-17.2,5.6-45,8-59.4,5h0Z"/>
            <path class="cls-1" d="M296,176.2V60l24.6-16.4c27.8-18.4,63.2-36.2,79.4-39.6,6-1.4,20-2,31-1.6,31,1,40,7.2,46.2,31.6,2.6,10.4,3,22.4,2.4,73.8-.8,57-1.2,62.2-5.4,75.2-13.4,41.2-40.6,73.2-78.6,92.2s-39,15-71,16.2l-28.6,1.2v-116.4h0Z"/>
          </g>
          <g>
            <path class="cls-2" d="M2990.2,1301.6c2-7,4.8-9.6,11-9.6s13.2-8.6,12.4-14.4c-.4-3.6-2-4.8-7-5.2-6.8-.6-8.2-3.8-5.4-11.2,2-5.2,27.6-4.4,32.8.8,7.2,7.2,4,25.4-6.4,35.4-8.4,8-15.2,10.6-28.6,10.6h-10.8l2-6.4h0Z"/>
            <path class="cls-2" d="M2312,1244.8c-2.8-.4-12.6-1.8-21.8-3l-16.6-2.2,1.2-6c.6-3.4,1.2-9.6,1.2-13.8v-7.8l32.6,1.2c40.2,1.6,48.4,0,51.2-10.2,1.2-4.6,1.2-9.6-.2-14.2-2.2-8-4.2-9.2-40-21.6-37.4-13.2-46.6-24.2-46.6-56.2s9.2-40.8,38.4-45.4c15.2-2.4,53.4-1,70.6,2.6l11,2.2-.6,8.2c-1.4,19,2.2,17.4-38.4,17.4s-36.2.2-40,4c-5.6,5.6-5.4,18.8.6,24.6,2.4,2.6,16.4,9,31.2,14.2,33.2,11.8,40.6,16.6,47.2,29.8,4.2,8.6,5,13,5,28.4,0,30.4-9.2,42-37,46.8-11.6,2-37.8,2.6-49,1h0Z"/>
            <path class="cls-2" d="M2480,1243.2c-6-1.2-13.2-3.6-16-5-9.8-5.2-20-17-24.2-28-9.4-25.2-9.4-85.4.2-110.4,10-26.6,34.8-38,77-35.2,31.4,2.2,45.8,10,55.2,30.2,3,6.8,6.6,18,7.6,25.2,2.8,16.8,2.8,53.4,0,70-2.2,13.6-9.6,32.2-15.4,38.6-13,14.4-53.6,21.4-84.4,14.6h0ZM2527.2,1211c2.8-1.8,7.2-7.6,9.4-12.6,4-8.6,4.4-12.8,4.4-44.4s-.4-36-4-42.8c-5.6-11-12.8-15.6-25.4-16.6-23-2-33.4,7-37.6,31.8-2.8,16.6-1.6,56.2,2,68.4,2.6,8.8,11.6,18.4,18.6,20,8.4,1.8,27.6-.4,32.6-3.8Z"/>
            <path class="cls-2" d="M2814,1244c-21.8-3.6-35.2-13.8-42.4-31.8-4.2-10.6-4.6-14.6-5.2-77.6l-.6-66.6h38l.6,64.6c.6,74,.8,74.4,16.6,80.4,11.2,4.4,27,3.2,34.6-2.4,11-8.2,11.4-10.4,12-79l.6-63.6h38.2l-.8,66.6c-.8,62.8-1,67-5.2,77.6-7.4,18.4-19.2,27.8-40.6,31.8-11.8,2.2-32.6,2.2-45.8,0h0Z"/>
            <path class="cls-2" d="M2998,1243.8c-24.6-4.4-39.2-17-46.6-40.8-3.8-12.2-4.4-18.6-4.4-48s3.6-56.4,17-71.6c14.4-16.2,43.8-22.4,83.4-17.6,27,3.4,25.2,1,21.4,25.4l-.8,6.2-30.8-.2c-28.2-.2-31.4.2-36.6,4-10.6,7.8-13.4,16.8-14.2,47-1.8,59.4,5.8,67.6,59.8,64.6l25.4-1.4,1.2,5.8c.6,3.2,1.4,9.4,1.6,13.8l.6,8-11,2.4c-15,3.4-52.6,4.8-66,2.4h0Z"/>
            <path class="cls-2" d="M3150.2,1243c-22.6-5-34.2-16-41.6-40.2-3-9.6-3.6-18.6-3.6-47.8s.6-37.6,4.6-50.6c5.6-18,16.4-30,31.6-35.2,21.8-7.4,63.4-6,80.8,2.8,10.8,5.6,21.4,18.2,25,30.4,8.2,26.6,8.2,77.8.2,104.6-3.6,12-14.6,25.6-25.2,31-15.4,7.8-48,10-71.8,5h0ZM3195.2,1212.2c10-4.6,14.4-13,17.2-33,2.4-16.6,1-51.4-2.6-63.4-3.6-11.6-11.8-19.2-23-21-18.8-2.8-30.8,2.4-37.8,16.4-3.2,6.4-4,13-4.6,37-1,33.4,1.4,49,9,57.8,8.4,10,27.2,12.8,41.8,6.2h0Z"/>
            <path class="cls-2" d="M3469.2,1243c-10.8-1.6-20.2-3.2-20.6-3.8-.6-.6-.4-6.8.2-13.8l1.4-13,37.8.4c34.4.2,38-.2,41.8-3.6,6-5.6,6-21-.2-26.6-2.6-2.2-15.4-7.8-28.6-12.4-28-9.8-39-15.8-45.6-24.8-7.6-10-10-20.2-9-38.4,1.4-26.8,10.2-36.6,36.2-41,16.2-2.8,55.8-1.6,73,2,11.4,2.6,12,3.6,9.2,20.6l-1.4,7.4h-35.2c-42.2,0-44.2.8-44.2,16s3.6,16.2,30.8,25.2c37.4,12.4,48.2,19.6,54.2,36.6,3.6,10.2,4,31.8.8,43.2-2.8,10-14.6,21.8-24.8,24.8-12.6,3.8-53.6,4.4-75.8,1.2h0Z"/>
            <path class="cls-2" d="M4527.8,1244.2c-38-7-51.8-30.8-51.8-89.2s13.8-82.4,53.2-89.2c14.8-2.6,50.4-1.2,63.4,2.4,8.2,2.2,8.4,3.4,6.2,20.6l-1.4,9.4-25.2-1.4c-29.6-1.6-39.6.4-47,9.4-7.6,9-9.8,20-9.8,48.8s2.6,41.4,11.4,50.2c8.2,8.2,19,9.6,51.8,7.4,22.6-1.6,23.4-1.6,23.4,2.4s.6,8.6,1.2,14.2l1.2,10.2-11.8,2.4c-15.8,3-53.4,4.4-64.8,2.4h0Z"/>
            <path class="cls-2" d="M5268,1244.8c-2.8-.4-12.4-1.8-21.6-3-13.2-1.8-16.4-2.8-15.6-5.2.6-1.6,1.2-7.8,1.2-13.8v-10.8l33.6,1.2c38.6,1.6,46.6.2,50.4-9.2,3.2-8,1-19.2-4.6-22.8-2.4-1.6-16-7.2-30.4-12.2-32.8-11.8-41.4-17.6-47.8-32.2-7-16-5.4-43.4,3.4-56.2,2.6-3.8,8.6-8.4,14.4-11,9-4,13.2-4.4,41-4.6,18.6,0,36.4,1,44.6,2.8,12.4,2.4,13.6,3.2,12.6,7-.6,2.2-1.2,8-1.2,12.8v8.4h-37c-34.4,0-37.2.2-41,4-5,5-5.4,17.8-.4,23.8,2,2.6,14.6,8.4,32.4,14.8,16,5.8,32.4,13,36.4,16.2,11.6,8.8,16.4,21,16.4,41.2s-7.4,39-26.8,45.8c-7,2.4-50.4,4.6-60,3h0Z"/>
            <path class="cls-2" d="M6328,1244.2c-14.6-4.8-22.8-11.8-29.6-25.2-7.4-15-9.4-28.6-9.4-63s4.6-62.4,21.4-76.8c10.8-9.4,23.8-13.2,48.6-14.6,17.8-1,50,1.6,58,4.6,2.2,1,2.6,3.4,1.8,10.4-2.2,19.2,1.6,17.4-36.6,17.4s-41.6,1-49.2,16.2c-3.6,7-4,11.8-4,42.8s1.8,46.8,13.4,54c5.4,3.4,8.8,4,18.6,3.2,6.6-.4,15.8-2.4,20.6-4.4l8.4-3.4v-63.4h36v100h-13.8c-14.8,0-16-1.2-16.2-13.6q0-4.6-7.8,1.4c-12.2,9.8-24.8,14.4-40.8,15.4-8,.4-16.6,0-19.4-1Z"/>
            <path class="cls-2" d="M7176,1244.8c-2.8-.4-12.4-1.8-21.6-3-13.2-1.8-16.4-2.8-15.6-5.2.6-1.6,1.2-7.8,1.2-13.8v-10.8l33.6,1.2c38.6,1.6,46.6.2,50.4-9.2,3.2-7.6,1-19-4-22.6-2.2-1.6-16.2-7.2-31.2-12.6-42.4-15.2-51.6-25.4-51.6-57.8s5.4-33.6,20.6-40.8c10.6-4.8,13-5.2,42.2-5.2s59,3.6,57.2,8.4c-.6,1.6-1.2,7.4-1.2,12.8v9.8h-37c-34.4,0-37.2.2-41,4-5,5-5.4,17.8-.4,23.8,2,2.6,14.6,8.4,32.4,14.8,16,5.8,32.4,13,36.4,16.2,11.6,8.8,16.4,21,16.4,41.2s-7.4,39-26.8,45.8c-7,2.4-50.4,4.6-60,3h0Z"/>
            <path class="cls-2" d="M2652,1242.2c-10.6-2.2-19.2-8-23.8-16.2-4-7.2-4.2-10.2-4.2-82.8v-75.2h35.8l.6,69.2c.6,65.8.8,69.2,4.4,72,3,2.2,11.8,2.8,37.6,2.8h33.6v27.8l-6.4,1c-11.8,1.8-70.4,2.8-77.6,1.4h0Z"/>
            <path class="cls-2" d="M3321.4,1242.2c-9.2-2-16.8-7.4-22.8-16.2-4.6-6.4-4.6-7.6-4.6-70.4s.2-64.2,4-71.6c8.4-16.4,27.4-20,86-16.6l27,1.6v26l-36.2,1c-26.6.8-37,1.8-39.6,3.8-2.6,2.2-3.2,6.4-3.2,20.4v17.8h70v26h-70v21.8c0,17.8.6,22.2,3.2,24.4,2.6,2,13,3,39.6,3.8l36.2,1,.6,12.4c.6,11.6.2,12.6-4,13.4-8.6,1.8-78.6,3-86.2,1.4h0Z"/>
            <path class="cls-2" d="M4665.4,1241.2c-11-3-18.8-9.4-22.6-18.6-3.6-8.2-4-125-.6-134,2.6-7,9-14,16.8-18.2,5.2-3,12.4-3.4,51.6-3,25.2.4,46.2.8,47,1.4.8.4,1,6.8.8,14l-.8,13.2h-35.4c-45.2,0-44.2-.6-44.2,24.2v17.8h70v26h-70v21.8c0,29.4-1.8,28.2,44.2,28.2h35.4l.8,13c.6,11.8.2,13.2-3.4,14-2.2.4-21,1.2-42,1.8-28.2.8-40.4.4-47.6-1.6h0Z"/>
            <path class="cls-2" d="M5931.8,1242.2c-10.6-2.2-21-9.4-24.6-17-2.8-5.8-3.2-16.2-3.2-70.6s.2-73.6,16-82.4c10.4-5.8,32.2-7.2,74-4.8l27,1.6.6,6.8c.4,3.8.2,10-.6,13.6l-1.2,6.6h-34.6c-44.2,0-43.8-.2-45,24.8l-.6,17.2h72.4v26l-35.4.4-35.6.6v20.6c0,29-1,28.4,44,28.4s37-1,37,17.4-.6,8.6-4.4,9.4c-8.4,1.8-78.6,3-85.8,1.4Z"/>
            <path class="cls-2" d="M6090,1241.8c-10-2-16.6-6.2-22.8-14.6-4-5.2-4.2-8.4-4.8-82.4l-.6-76.8h38.2v68.8c0,60,.4,69.4,3.2,72,2.6,2.6,8.8,3.2,37,3.2h33.8v9.6c0,5.2.6,11.4,1.2,13.8,1,3.8.2,4.4-5.6,5.4-13.2,2-70.8,2.8-79.6,1h0Z"/>
            <path class="cls-2" d="M6495.4,1242.2c-8.6-1.8-16.2-6.8-22.2-15-4-5.2-4.2-8.4-4.8-71l-.6-65.4,4.6-6.8c11.4-16.8,22.6-19.2,76.2-16.8l36.4,1.8.6,13.6.6,13.4h-35.6c-45.6,0-44.6-.6-44.6,24.2v17.8h70v26h-70v21.8c0,29.4-1.8,28.2,44.4,28.2h35.6v13c0,8.8-.8,13.4-2.4,14-5.4,1.6-81,2.6-88.2,1.2h0Z"/>
            <path class="cls-2" d="M7009.4,1241.4c-11.4-3.4-16.8-7.8-21.6-18.4-3.4-7.2-3.8-14-3.8-67.6s.6-60.8,3-67c8.6-20.2,19.2-23.4,74.4-21.4,22.4.8,41,2,41.4,2.8.6.8.4,6.8-.2,13.6l-1.2,12.4-36.8.6c-44.2.8-42.6-.2-42.6,25v16.6h70v26h-70v21c0,30-1.6,29,43.8,29h35.6l1.2,12.4c.8,8.6.4,13-1.2,14-1.4.8-9.2,1.6-17.4,1.6s-26.2.4-40,1c-17.6.8-27.8.2-34.6-1.6h0Z"/>
            <path class="cls-2" d="M3678,1166.8c0-82.4.2-84.4,12-92.8,9.8-7,22.4-8.4,62.2-7,20.6.8,38.2,2,39.4,2.8,1.4.8,1.6,5.8,1,13.6l-1.2,12.4-34.8.6c-43.2.8-42.6.4-42.6,27.8v17.8h68v26h-68v74h-36v-75.2h0Z"/>
            <path class="cls-2" d="M3830,1155v-87h38v174h-38v-87Z"/>
            <path class="cls-2" d="M3914,1159.4c0-71.4.4-83.2,3.2-87,2.8-4,4.8-4.4,20.8-4.4s19.2.6,21,1.2c3,1.2,45.2,83.4,59.8,116.4,3,6.8,6,12.4,6.8,12.4s1-29.2.8-65l-.8-65h36.4v83.6c0,98.8,2.4,90.4-25.2,90.4s-19.2-1-21.4-2.4c-3.2-2.6-57.2-111-60.8-122.4-4.6-14.8-5.6-4.6-5,58.8l.6,66h-36.2v-82.6h0Z"/>
            <path class="cls-2" d="M4093,1239.6c.6-1.4,12.2-39.4,26-84.6,16-52.4,26.2-83,28.4-84.4,5.2-4,51.4-3.6,54.6.4,1.4,1.6,14,40.6,28,86.4l25.6,83.6-17.2.6c-9.4.4-18,.2-19.2-.2-1.2-.6-5-11-8.2-23.2l-5.8-22.2-31.2.4-31,.6-6,22.6-6,22.4h-19.4c-14.8,0-19.2-.6-18.6-2.4h0ZM4196,1166c0-1-3-13.4-6.8-27.4s-8-29.4-9.2-34c-2.6-10.4-9.2-12.2-11.2-3-.6,3-4.6,18.2-9,34-4.2,15.6-7.8,29.4-7.8,30.4s9.2,2,22,2,22-.8,22-2Z"/>
            <path class="cls-2" d="M4286,1159.4c0-71.4.4-83.2,3.2-87,2.8-4,4.6-4.4,21.6-4.4s19.6,1,21.8,2.6c1.8,1.2,16.8,30.4,33.4,64.4,16.4,34.2,30.6,62.2,31.6,62.6.8.2,1.2-28.8.8-64.6l-.6-65h36.2v82.6c0,71.4-.4,83.2-3.2,87-2.8,4-4.8,4.4-20.8,4.4s-19.2-.6-21-1.2c-3.4-1.4-52.2-97-60-117.8-2.6-6.4-5.4-12.2-6.2-12.4-1-.4-1.6,28.6-1.2,65.4l.6,66h-36.2v-82.6h0Z"/>
            <path class="cls-2" d="M4800,1155v-87h36v174h-36v-87Z"/>
            <path class="cls-2" d="M4884,1155.2c0-77.2.4-87,3.2-88,6.6-2.6,88-1.2,97.4,1.6,21.6,6.4,29.8,19,30,46.4,0,13.4-.8,18.2-4.8,26.2-4.6,9.4-8.8,12.6-23.8,18.2l-5,1.8,7.2,3.2c10.8,4.4,14.8,12,23.8,43.6,4.4,15.8,8.4,30,9,31.4.8,2-3.4,2.4-19.2,2l-20.2-.6-7.4-29.8c-9.2-37-9.4-37.2-34.4-37.2h-17.8v68h-38v-86.8h0ZM4969.8,1140.6c7.4-6,9.4-21.4,5-37.2-2-6.6-11.4-9.4-32.8-9.4h-20v50h21.8c17.8,0,22.6-.6,26-3.4Z"/>
            <path class="cls-2" d="M5042.4,1239.6c.6-1.4,12-39,25.6-83.6,13.4-44.6,26-82.6,27.6-84.4,2.6-3,6.6-3.6,27.4-3.6s25.2.8,27.4,2.6c2.8,2,53.6,162.6,53.6,169.2s-6.4,2.2-18.6,2.2h-18.6l-6-22.4-6-22.6-31.2-.6-31.2-.4-2.2,9.4c-1.4,5.4-4.2,15.6-6.4,23.2l-4,13.4h-19c-14.6,0-19-.6-18.4-2.4h0ZM5145.4,1164.6c-.4-2-4.8-18.2-9.6-36.2-7.8-28.4-9.2-32.4-12.6-32-3,.4-4.8,4.4-8.4,18.6-2.6,10-6.8,25.8-9.6,35.6l-4.8,17.4h23c21,0,23-.4,22-3.4Z"/>
            <path class="cls-2" d="M5460,1155v-87h38v174h-38v-87Z"/>
            <path class="cls-2" d="M5546,1158.2c0-73.6.4-84.2,3.2-87,4.8-4.8,39-4.6,43.4.4,3.8,4.2,61.4,120.6,61.4,124s1,2.4,2,2.4,2-23,2-65v-65h34v85c0,98.6,2.8,89-25.6,89s-18.4-.6-21-3.6c-3.6-4-55.4-109-59.6-120.8-1.4-4.2-3.2-7.6-3.8-7.6s-.8,29.8-.4,66l.8,66h-36.4v-83.8h0Z"/>
            <path class="cls-2" d="M5780,1170v-72h-52v-30h142v30h-52v144h-38v-72Z"/>
            <path class="cls-2" d="M6208,1155v-87h38v174h-38v-87Z"/>
            <path class="cls-2" d="M6626,1160.6c0-61.8.6-82.8,2.6-86.6,2.4-4.8,3.4-5,22.8-5.6q20.2-.6,24,5c2.2,3,16.8,32.4,32.8,65,15.8,32.8,29.2,59.6,29.8,59.6s.8-29.2.4-65l-.8-65h36.4v83.8c0,73.6-.4,84.2-3.2,87-4.8,4.8-39.2,4.6-44-.2-4-4-55.8-109.8-59.4-121-5.4-17.4-6.4-7.4-5.8,58.4l.6,66h-36.2v-81.4h0Z"/>
            <path class="cls-2" d="M6862,1170v-72h-54v-30h144v30h-54v144h-36v-72Z"/>
            <path class="cls-2" d="M3184,1045.8c-22.8-8.4-27.2-9.4-30.6-7.4-1.8,1-3.4,3.6-3.4,5.6,0,3.4-1.4,4-8,4s-8,0-8-7.8c0-15.6,7.8-26.2,19.2-26.2s13.8,2.8,22.8,6c20.6,7.6,27.4,7.8,29.2.8,1.2-4.4,2.2-5,8.6-4.4,6,.4,7.4,1.4,7.8,5.6,1.2,7.6-3.2,19.4-9,23.8-6.4,5.2-14.4,5.2-28.6,0h0Z"/>
            <path class="cls-2" d="M2558,791.8c-97.2-9.4-166.2-65.2-188.6-153.2-4.2-16.6-4.4-21.6-4.4-88.6s.4-73.2,3.6-86c16.8-71.6,64.6-116.2,144.4-134.6,17.2-4,24.8-4.2,155.6-4.8l137.4-.8v-14.8c0-20.8-3.6-44.2-8.4-54.6-2.6-5.2-7.2-10.8-12-13.8-17-11.4-17.4-11.4-161.6-12.6l-133-1-13.2-6.4c-16.2-8-28-20.4-36-37.6-5.6-12-6.2-15.2-9.8-64.2-2.2-28.6-4-53.4-4-55.4,0-3.6,7-3.6,177.6-2.8,151.6.6,180.4,1.2,197.8,4,40.6,6.4,70.8,16.4,97.4,31.8,17.2,10,47.2,39.6,56.8,56,17.6,29.8,28.4,66.2,32.4,108.6,1.2,13.8,2,115.4,2,271.6v249.6l-70.4-.6c-62.8-.6-71.4-1-77-4-10.2-5.6-16.2-15.4-22.8-37.8-3.6-11.4-6.6-21.2-7-21.6-.4-.4-9.2,4.8-19.6,11.6-25,16.2-65.8,36-92.8,44.8-47.8,16-97,21.8-144.4,17.2h0ZM2660.2,621.8c25.2-5,46-12,71.8-24,41-19.6,59.6-34,68.8-53.6,3.8-8.4,4.2-13.4,4.8-52.2.4-23.6.4-47.4,0-53l-.6-10-3.4,6.4c-6.6,11.8-25,29.6-37,35.6l-11.6,6-86,1-86.2,1-9.6,5c-12.2,6.4-16.8,14.6-19.6,35.4-2.6,19.8-.6,64.6,3.2,77.6,5.2,17.2,18.8,26.4,42,29,18.4,2,39.4.6,63.4-4.2h0Z"/>
            <path class="cls-2" d="M3744,792c-119-6.4-231.8-31.6-303.6-67.8l-16.4-8.2v-66c0-55,.6-67.4,3-73.4,4-9.6,8.2-14.2,17.4-18.8,11.8-6,24.2-5,41.6,3.4,92.2,44.4,215.2,70.8,301.2,64.8,33.6-2.2,45.6-8.2,55.4-27,5.6-10.8,7.2-38.8,2.8-49.4-6.2-15-12.8-17.2-157.8-52.6-117.8-29-131-32.6-158.8-45.8-74.2-35-104.8-89.8-104.8-186.8s14.2-109.4,45.2-142.2c30.6-32.4,75-50,146.8-58.4,14.2-1.6,77.6-2.6,198.6-3.2l177.4-1v7.8c0,9.4-5.6,82.6-7,94-3,21.4-22.4,45.8-44.6,56.2l-11.4,5.4-141,1.2c-143,1.2-156.6,2-170.4,9-8.6,4.6-11.6,12.4-11.6,31.6,0,28.8,5.2,36,32.8,45,25.6,8.4,29.6,9.4,132.4,34,50.8,12.2,99.4,24.4,108,27,84.8,25.6,126,62.8,144.2,130.4,5.2,19,5.4,21.8,5.4,70.8s-.2,51.8-5.2,70.2c-15.2,56.2-47,96.8-96.2,122.8-20.2,10.8-46.8,19.8-70.4,24-22.4,3.8-72,5.2-113,3h0Z"/>
            <path class="cls-2" d="M1242,517.4V252.8l102.2-71.8c108.6-76.4,117.4-82.2,148.8-97,66.6-31.8,137.2-42.6,199.8-30.8,77,14.6,132.8,73.4,142.2,149.8,2.2,17,3.8,11.2,10-36,2.8-22,5.6-42.4,6.2-45.2.8-4,5.6-8,21.8-17.6,80.4-48,165.2-65.8,240-50.4,53.8,11,95.8,41.8,120.8,88.4,24.4,45.6,26.8,81.2,25.8,378.8l-.6,202-5.4,11.6c-7.4,15.8-17.2,27.2-30,34.8-18.6,11.2-28.2,12.6-89,12.6h-54.4l-.6-250.4-.6-250.6-6.2-11c-5.2-9-8.4-12-17.8-17-11.2-5.8-12.8-6-36.8-6s-27.8.8-40.2,4.8c-30.6,9.4-51.4,21.2-103.4,57.8l-32.6,22.8-.4,196.2-.6,196.4-5.2,11c-10.6,22.4-31.4,38.8-55.4,43.8-6.2,1.2-32.8,2.2-64.4,2.2h-54l-.4-244.4-.6-244.6-4.4-13c-7.8-23.2-21.4-31.8-51.8-33.6-43.4-2.2-79,12.2-147.2,60.2l-31.6,22.2v180c0,197.8.2,193-12.2,217.6-13.4,26.4-44,48.6-73.8,53.4-7.2,1.2-32.2,2.2-55.4,2.2h-42.6v-264.6Z"/>
            <path class="cls-2" d="M3130.4,451.6l.6-330.6,4.6-11.6c9.4-23,33.6-42.8,58.6-47.4,5.8-1.2,35.4-2,66.2-2h55.6l-.4,330.6-.6,330.4-4.8,12c-6.8,16.6-26.6,36.6-43.2,43.2-11.6,4.4-14.2,4.6-74.6,5.4l-62.4.8.4-330.8h0Z"/>
          </g>
        </g>
      </g>
    </g>
  </g>
</svg>